# xmcd
#
# Track frame offsets: 
#        150
#        20797
#        34896
#        45317
#        55069
#        67329
#        92322
#        111074
#        126036
#        138045
#        151586
#        167064
#        176328
#        188253
#        200206
#        217021
#
# Disc length: 3041 seconds
#
# Revision: 0
# Processed by: cddbd v1.5.2PL0 Copyright (c) Steve Scherf et al.
# Submitted via: ExactAudioCopy v0.99pb4
#
DISCID=d20bdf10
DTITLE=Евгений Кравкль - Приветъ съ береговъ грознаго Байкала
DYEAR=2010
DGENRE=Chanson
TTITLE0=Песня про лохов
TTITLE1=Песня про лохов-2
TTITLE2=Тюбик
TTITLE3=Тюбик, или рассказ художника
TTITLE4=Тюбик, или рассказ соседа
TTITLE5=Воспоминание в водоохраной зоне
TTITLE6=Баллада о выдре
TTITLE7=На пароме
TTITLE8=Западная сторона
TTITLE9=Зима в Листвянке
TTITLE10=Над Байкалом высокое небо
TTITLE11=За туманом
TTITLE12=Дело было в поезде
TTITLE13=Попутная песенка
TTITLE14=Путешествие
TTITLE15=Там, где чистая вода
EXTD=
EXTT0=
EXTT1=
EXTT2=
EXTT3=
EXTT4=
EXTT5=
EXTT6=
EXTT7=
EXTT8=
EXTT9=
EXTT10=
EXTT11=
EXTT12=
EXTT13=
EXTT14=
EXTT15=
PLAYORDER=
